<svg width="18" height="19" viewBox="0 0 18 19" fill="none" xmlns="http://www.w3.org/2000/svg"><path fill-rule="evenodd" clip-rule="evenodd" d="M6.3 0.355347C2.82124 0.355347 0 3.17659 0 6.65535C0 10.1341 2.82124 12.9553 6.3 12.9553C7.71486 12.9553 9.02096 12.4887 10.0727 11.7009L16.4636 18.0917C16.8151 18.4432 17.3849 18.4432 17.7364 18.0917C18.0879 17.7403 18.0879 17.1704 17.7364 16.819L11.3455 10.4281C12.1333 9.37631 12.6 8.07021 12.6 6.65535C12.6 3.17659 9.77876 0.355347 6.3 0.355347ZM6.29999 2.15535C8.78464 2.15535 10.8 4.1707 10.8 6.65535C10.8 9.13999 8.78464 11.1553 6.29999 11.1553C3.81535 11.1553 1.79999 9.13999 1.79999 6.65535C1.79999 4.1707 3.81535 2.15535 6.29999 2.15535Z" fill="#767676"></path></svg>